<svg
   style="clip-rule:evenodd;fill-rule:evenodd;stroke-linejoin:round;stroke-miterlimit:2"
   viewBox="0 0 48 48"
   version="1.1"
   xmlns="http://www.w3.org/2000/svg"
   xmlns:svg="http://www.w3.org/2000/svg">
   <defs
      id="defs1">
      <style
         type="text/css"
         id="current-color-scheme">
            .ColorScheme-Text {
                color:#232629;
            }
            .ColorScheme-Highlight {
                color:#3daee9;
            }
      </style>
   </defs>
   <linearGradient
      id="a"
      gradientTransform="matrix(0 -41.6338 37.8697 0 33.3576 52.7218)"
      gradientUnits="userSpaceOnUse"
      x2="1">
      <stop offset="0" stop-color="#000000" id="stop1"/>
      <stop offset="1" stop-color="#ffffff" id="stop2"/>
   </linearGradient>
   <path
      d="m45.841 11.91c0-2.072-1.679-3.75-3.75-3.75h-36.183c-2.07 0-3.75 1.678-3.75 3.75v24.185c0 2.07 1.68 3.75 3.75 3.75h36.183c2.071 0 3.75-1.68 3.75-3.75z"
      ffill="#111111"
      id="path1" />
   <path
     d="m45.841 15.489c0-.995-.395-1.948-1.098-2.652-.704-.703-1.657-1.098-2.652-1.098h-19.185c-.924 0-1.815-.341-2.502-.958-.576-.516-1.285-1.151-1.861-1.668-.688-.616-1.579-.957-2.503-.957h-10.131c-.995 0-1.948.395-2.652 1.098-.703.703-1.098 1.657-1.098 2.652v24.189c0 2.07 1.679 3.75 3.75 3.75h36.182c2.071 0 3.75-1.68 3.75-3.75z"
     fill="url(#a)"
     id="path2" />
  <g
     transform="matrix(0.51484379,0,0,0.51484379,12.123516,13.014146)"
     fill-rule="nonzero"
     id="g4"
     inkscape:label="obsidian"
     style="clip-rule:evenodd;fill-rule:evenodd;stroke-linejoin:round;stroke-miterlimit:2;stroke:#fefefe;stroke-opacity:1;stroke-width:0.38846734;stroke-dasharray:none">
    <path
       d="m 19,30 h 8 L 28,6 27.324,3.933 C 26.293,2.784 24.509,2.675 23.345,3.726 l -9.31,7.632 c -0.488,0.437 -0.808,1.031 -0.902,1.68 l -1.063,7.031 c -0.011,0.07 -0.023,0.133 -0.039,0.199"
       fill="#b091f0"
       id="path1-6"
       style="fill:#353535;fill-opacity:1;stroke:#fefefe;stroke-opacity:1;stroke-width:0.38846734;stroke-dasharray:none"
       inkscape:label="o4" />
    <path
       d="m 36.644,36.874 c 0,0 3.523,-5.523 4.164,-6.609 0.296,-0.5 0.242,-1.125 -0.106,-1.586 -0.91,-1.203 -2.648,-3.653 -3.601,-5.922 -0.968,-2.329 -1.117,-5.946 -1.124,-7.712 -0.004,-0.672 -0.215,-1.324 -0.633,-1.852 l -8.02,-9.26 c 0.535,1.762 0.497,2.985 0.165,4.274 -0.304,1.196 -0.867,2.277 -1.461,3.422 -0.199,0.387 -0.401,0.773 -0.596,1.18 -0.789,1.605 -1.496,3.425 -1.602,5.871 -0.105,2.437 0.395,5.501 2.026,9.59"
       fill="#8251e6"
       id="path2-7"
       style="fill:#161616;fill-opacity:1;stroke:#fefefe;stroke-opacity:1;stroke-width:0.38846734;stroke-dasharray:none"
       inkscape:label="o3" />
    <path
       d="m 30.438,44.923 c 1.619,0.428 4.35,-0.986 4.612,-2.916 0.227,-1.664 0.669,-3.445 1.594,-5.133 -2.121,-4.555 -5.265,-6.928 -8.069,-7.975 -2.975,-1.109 -6.221,-0.746 -9.513,0.055 l -2.545,13.773 c 0.32,0.156 0.672,0.25 1.031,0.273 0,0 2.039,0.016 4.452,0.184 2.406,0.176 6.012,1.097 8.438,1.739 z"
       fill="#6135ba"
       id="path3-5"
       style="fill:#060606;fill-opacity:1;stroke:#fefefe;stroke-opacity:1;stroke-width:0.38846734;stroke-dasharray:none"
       inkscape:label="o2" />
    <path
       d="m 16.517,42.727 c 3.422,-6.945 3.357,-12.281 1.9,-15.828 -1.34,-3.273 -4.417,-5.354 -6.386,-6.631 -0.039,0.184 -0.101,0.363 -0.175,0.539 L 7.247,31.078 c -0.473,1.054 -0.254,2.289 0.551,3.117 l 7.922,7.962 c 0.234,0.234 0.5,0.429 0.797,0.57 z"
       fill="#8a61d9"
       id="path4"
       style="fill:#313131;fill-opacity:1;stroke:#fefefe;stroke-opacity:1;stroke-width:0.38846734;stroke-dasharray:none"
       inkscape:label="o1" />
   </g>
   <path
      d="m 45.882497,11.958718 c 0,-2.0714999 -1.67925,-3.7500009 -3.75,-3.7500009 H 5.9494973 c -2.07075,0 -3.75,1.678501 -3.75,3.7500009 v 24.1845 c 0,2.07075 1.67925,3.75 3.75,3.75 H 42.132497 c 2.07075,0 3.75,-1.67925 3.75,-3.75 z"
      style="opacity:0.80;                 fill:currentColor"
      class="ColorScheme-Highlight"
      id="colour_path" />
</svg>